<svg width="32" height="32" viewBox="0 0 32 32" fill="none" xmlns="http://www.w3.org/2000/svg">
<rect width="32" height="32" fill="#0C0C0C"/>
<path d="M11.088 20H3.696V11.072H11.088H12.12C13.908 11.024 14.808 12.02 14.808 13.532C14.808 14.576 14.496 15.14 13.956 15.44C14.772 15.668 15.276 16.232 15.276 17.54C15.276 19.052 14.376 20.048 12.588 20H11.088ZM6.408 18.152H11.7C12.264 18.176 12.564 17.876 12.552 17.312C12.564 16.748 12.264 16.448 11.7 16.46H6.408V18.152ZM11.232 12.92H6.408V14.612H11.232C11.796 14.624 12.096 14.324 12.084 13.772C12.096 13.208 11.796 12.908 11.232 12.92Z" fill="#FDFDFD"/>
<path d="M20.912 20H28.304V11.072H20.912H19.88C18.092 11.024 17.192 12.02 17.192 13.532C17.192 14.576 17.504 15.14 18.044 15.44C17.228 15.668 16.724 16.232 16.724 17.54C16.724 19.052 17.624 20.048 19.412 20H20.912ZM25.592 18.152H20.3C19.736 18.176 19.436 17.876 19.448 17.312C19.436 16.748 19.736 16.448 20.3 16.46H25.592V18.152ZM20.768 12.92H25.592V14.612H20.768C20.204 14.624 19.904 14.324 19.916 13.772C19.904 13.208 20.204 12.908 20.768 12.92Z" fill="#FDFDFD"/>
</svg>
