<svg width="256" height="256" viewBox="0 0 256 256" fill="none" xmlns="http://www.w3.org/2000/svg">
<rect width="256" height="256" fill="#0C0C0C"/>
<path d="M158.08 154H207.36V94.48H158.08H151.2C139.28 94.16 133.28 100.8 133.28 110.88C133.28 117.84 135.36 121.6 138.96 123.6C133.52 125.12 130.16 128.88 130.16 137.6C130.16 147.68 136.16 154.32 148.08 154H158.08ZM189.28 141.68H154C150.24 141.84 148.24 139.84 148.32 136.08C148.24 132.32 150.24 130.32 154 130.4H189.28V141.68ZM157.12 106.8H189.28V118.08H157.12C153.36 118.16 151.36 116.16 151.44 112.48C151.36 108.72 153.36 106.72 157.12 106.8Z" fill="#FDFDFD"/>
<path d="M97.92 154H48.64V94.48H97.92H104.8C116.72 94.16 122.72 100.8 122.72 110.88C122.72 117.84 120.64 121.6 117.04 123.6C122.48 125.12 125.84 128.88 125.84 137.6C125.84 147.68 119.84 154.32 107.92 154H97.92ZM66.72 141.68H102C105.76 141.84 107.76 139.84 107.68 136.08C107.76 132.32 105.76 130.32 102 130.4H66.72V141.68ZM98.88 106.8H66.72V118.08H98.88C102.64 118.16 104.64 116.16 104.56 112.48C104.64 108.72 102.64 106.72 98.88 106.8Z" fill="#FDFDFD"/>
</svg>
